# xmcd CD database file
#
# Track frame offsets:
#	150
#	10902
#	20238
#	31277
#	42323
#	53202
#	63755
#	73425
#	83290
#	93825
#	103957
#	112328
#	124175
#	133220
#	142507
#	152052
#	163680
#	174783
#
# Disc length: 2465 seconds
#
# Revision: 1
# Processed by: cddbd v1.5.2PL0 Copyright (c) Steve Scherf et al.
# Submitted via: CDex 1.70beta2
#
DISCID=f1099f12
DTITLE=Little Richard - Jazz and Blues Collection No 58
DYEAR=1976
DGENRE=Blues
TTITLE0=Tutti Frutti
TTITLE1=Long Tall Sally
TTITLE2=The Girl Can't Help It
TTITLE3=Lucille
TTITLE4=Send Me Some Lovin'
TTITLE5=Rip It Up
TTITLE6=Keep a Knockin'
TTITLE7=Ready Teddy
TTITLE8=All Around the World
TTITLE9=Miss Ann
TTITLE10=Ooh my Soul
TTITLE11=True Fine Mam
TTITLE12=Jenny Jenny
TTITLE13=By the Light of the Silvery Moon
TTITLE14=Good Golly Miss Molly
TTITLE15=Slippin' n' Slidin'
TTITLE16=Can't Believe you Wanna Leave
TTITLE17=Bama Lama Bama Loo
EXTD=YEAR: 1976
EXTT0=
EXTT1=
EXTT2=
EXTT3=
EXTT4=
EXTT5=
EXTT6=
EXTT7=
EXTT8=
EXTT9=
EXTT10=
EXTT11=
EXTT12=
EXTT13=
EXTT14=
EXTT15=
EXTT16=
EXTT17=
PLAYORDER=
